<svg id="Group_34242" data-name="Group 34242" xmlns="http://www.w3.org/2000/svg" xmlns:xlink="http://www.w3.org/1999/xlink" width="63.168" height="61.168" viewBox="0 0 63.168 61.168">
  <defs>
    <linearGradient id="linear-gradient" x1="0.871" y1="-0.061" x2="0.192" y2="0.967" gradientUnits="objectBoundingBox">
      <stop offset="0" stop-color="#f62b37"/>
      <stop offset="0" stop-color="#c82091"/>
      <stop offset="0" stop-color="#c32193"/>
      <stop offset="0" stop-color="#9d29a7"/>
      <stop offset="0" stop-color="#7d31b9"/>
      <stop offset="0" stop-color="#6237c7"/>
      <stop offset="0" stop-color="#3542e0"/>
      <stop offset="0" stop-color="#3741de"/>
      <stop offset="0" stop-color="#4e3cd2"/>
      <stop offset="0.011" stop-color="#fff"/>
      <stop offset="0.163" stop-color="#ffab00"/>
      <stop offset="1" stop-color="#ffc658"/>
    </linearGradient>
    <radialGradient id="radial-gradient" cx="0.5" cy="0.5" r="0.5" gradientUnits="objectBoundingBox">
      <stop offset="0.446"/>
      <stop offset="0.682" stop-color="#010101"/>
      <stop offset="0.767" stop-color="#080808"/>
      <stop offset="0.827" stop-color="#141414"/>
      <stop offset="0.876" stop-color="#252525"/>
      <stop offset="0.918" stop-color="#3b3b3b"/>
      <stop offset="0.955" stop-color="#565656"/>
      <stop offset="0.988" stop-color="#767676"/>
      <stop offset="1" stop-color="#848484"/>
    </radialGradient>
    <linearGradient id="linear-gradient-2" x1="2.897" y1="0.518" x2="-0.085" y2="0.49" gradientUnits="objectBoundingBox">
      <stop offset="0"/>
      <stop offset="0.139" stop-color="#020103"/>
      <stop offset="0.266" stop-color="#0b070e"/>
      <stop offset="0.389" stop-color="#191121"/>
      <stop offset="0.509" stop-color="#2d1f3b"/>
      <stop offset="0.627" stop-color="#47305d"/>
      <stop offset="0.744" stop-color="#674687"/>
      <stop offset="0.86" stop-color="#8c60b8"/>
      <stop offset="0.972" stop-color="#b77def"/>
      <stop offset="1" stop-color="#c385ff"/>
    </linearGradient>
    <linearGradient id="linear-gradient-3" x1="0.5" y1="0.163" x2="0.5" y2="1.165" xlink:href="#linear-gradient-2"/>
    <linearGradient id="linear-gradient-4" x1="0.68" y1="0.335" x2="0.852" y2="0.173" gradientUnits="objectBoundingBox">
      <stop offset="0" stop-color="#b77def"/>
      <stop offset="0" stop-color="#8c60b8"/>
      <stop offset="0" stop-color="#674687"/>
      <stop offset="0"/>
      <stop offset="0.005" stop-color="#47305d"/>
      <stop offset="1" stop-color="#fff"/>
    </linearGradient>
    <radialGradient id="radial-gradient-2" cx="0.5" cy="0.5" r="0.567" gradientUnits="objectBoundingBox">
      <stop offset="0" stop-color="#bababa"/>
      <stop offset="0.064" stop-color="#9c9c9c"/>
      <stop offset="0.167" stop-color="#737373"/>
      <stop offset="0.276" stop-color="#4f4f4f"/>
      <stop offset="0.391" stop-color="#323232"/>
      <stop offset="0.513" stop-color="#1c1c1c"/>
      <stop offset="0.645" stop-color="#0c0c0c"/>
      <stop offset="0.794" stop-color="#020202"/>
      <stop offset="1"/>
    </radialGradient>
    <radialGradient id="radial-gradient-3" cx="0.5" cy="0.5" r="0.498" xlink:href="#radial-gradient-2"/>
  </defs>
  <g id="Group_34241" data-name="Group 34241" transform="translate(0 0)">
    <g id="Group_34236" data-name="Group 34236">
      <g id="Group_34186" data-name="Group 34186" transform="translate(0 0)">
        <g id="Group_34184" data-name="Group 34184" transform="translate(0 0)">
          <ellipse id="Ellipse_3652" data-name="Ellipse 3652" cx="31.584" cy="30.584" rx="31.584" ry="30.584" fill="url(#linear-gradient)"/>
        </g>
      </g>
    </g>
    <g id="Group_34237" data-name="Group 34237" transform="translate(8.88 6.132)">
      <ellipse id="Ellipse_3653" data-name="Ellipse 3653" cx="23.059" cy="22.059" rx="23.059" ry="22.059" transform="translate(0 1.752)" fill="url(#radial-gradient)" style="mix-blend-mode: color-dodge;isolation: isolate"/>
      <path id="Path_21724" data-name="Path 21724" d="M170.452,192.991c0-9.765,5.308-16.123,10.329-18.074-6.627,1.985-11.548,9.321-11.548,18.074s4.921,16.089,11.548,18.073C175.9,208.429,170.452,200.739,170.452,192.991Z" transform="translate(-167.937 -168.036)" opacity="0.6" fill="url(#linear-gradient-2)" style="mix-blend-mode: screen;isolation: isolate"/>
      <path id="Path_21725" data-name="Path 21725" d="M195.759,241.02a24.294,24.294,0,0,1-16.2-6.111,21.347,21.347,0,0,0,32.409,0A24.3,24.3,0,0,1,195.759,241.02Z" transform="translate(-172.604 -197.158)" fill="url(#linear-gradient-3)" style="mix-blend-mode: screen;isolation: isolate"/>
      <path id="Path_21726" data-name="Path 21726" d="M195.3,166.689a22.438,22.438,0,0,0-16.392,7.094,22.5,22.5,0,0,1,31.805,31.806,22.5,22.5,0,0,0-15.413-38.9Z" transform="translate(-172.313 -164.316)" fill="url(#linear-gradient-4)" style="mix-blend-mode: screen;isolation: isolate"/>
      <path id="Path_21727" data-name="Path 21727" d="M236.105,179.869c-2.989,2.42-8.387.707-12.056-3.825s-4.22-10.168-1.23-12.589,8.387-.707,12.057,3.825S239.094,177.449,236.105,179.869Z" transform="translate(-191.292 -162.358)" fill="url(#radial-gradient-2)" style="mix-blend-mode: color-dodge;isolation: isolate"/>
      <path id="Path_21728" data-name="Path 21728" d="M202.33,249.456c-6.214.594-11.588-2.44-12-6.778s4.286-8.336,10.5-8.931,11.587,2.44,12,6.778S208.544,248.861,202.33,249.456Z" transform="translate(-177.463 -196.599)" fill="url(#radial-gradient-3)" style="mix-blend-mode: color-dodge;isolation: isolate"/>
    </g>
  </g>
  <g id="trending_up_black_24dp" transform="translate(19.279 18.491)">
    <path id="Path_18071" data-name="Path 18071" d="M0,0H24.393V24.393H0Z" fill="none"/>
    <path id="Path_18072" data-name="Path 18072" d="M16.229,6l2.327,2.327-4.96,4.96L9.531,9.222,2,16.763,3.433,18.2l6.1-6.1L13.6,16.164,20,9.771,22.327,12.1V6Z" transform="translate(0.033 0.098)" fill="#fff"/>
  </g>
</svg>
